{"scene":0,"asset":{"generator":"ImageToStl.com","version":"2.0"},"scenes":[{"name":"Scene","nodes":[0]}],"nodes":[{"name":"Node0","children":[1,2]},{"name":"Node1","mesh":0},{"name":"Node2","mesh":1}],"materials":[{"name":"Material.001","pbrMetallicRoughness":{"baseColorFactor":[0.0,0.0,0.0,1.0],"metallicFactor":1.068988,"roughnessFactor":0.75},"emissiveFactor":[0.0,0.0,0.0],"doubleSided":true},{"name":"Material","pbrMetallicRoughness":{"baseColorFactor":[0.552783,0.752828,0.689172,1.0],"metallicFactor":0.0,"roughnessFactor":0.75},"emissiveFactor":[0.0,0.0,0.0],"doubleSided":true}],"meshes":[{"name":"Mesh0","primitives":[{"indices":2,"material":0,"attributes":{"POSITION":0,"NORMAL":1}}]},{"name":"Mesh0","primitives":[{"indices":5,"material":1,"attributes":{"POSITION":3,"NORMAL":4}}]}],"accessors":[{"bufferView":0,"componentType":5126,"count":1290,"type":"VEC3","min":[-1.1612997,-0.13097043,0.36306667],"max":[-0.13018352,-0.062271513,1.3941828]},{"bufferView":1,"componentType":5126,"count":1290,"type":"VEC3"},{"bufferView":2,"componentType":5123,"count":7728,"type":"SCALAR"},{"bufferView":3,"componentType":5126,"count":85,"type":"VEC3","min":[-3.9545474,-0.1589799,0.0],"max":[2.6337094,5.225501,5.3072076]},{"bufferView":4,"componentType":5126,"count":85,"type":"VEC3"},{"bufferView":5,"componentType":5123,"count":384,"type":"SCALAR"}],"bufferViews":[{"target":34962,"buffer":0,"byteLength":15480,"byteOffset":0},{"target":34962,"buffer":0,"byteLength":15480,"byteOffset":15480},{"target":34963,"buffer":0,"byteLength":15456,"byteOffset":30960},{"target":34962,"buffer":0,"byteLength":1020,"byteOffset":46416},{"target":34962,"buffer":0,"byteLength":1020,"byteOffset":47436},{"target":34963,"buffer":0,"byteLength":768,"byteOffset":48456}],"buffers":[{"byteLength":49224,"uri":"data:application/octet-stream;base64,"}]}